<?xml version="1.0" encoding="iso-8859-1"?>
<!-- Generator: Adobe Illustrator 17.1.0, SVG Export Plug-In . SVG Version: 6.00 Build 0)  -->
<!DOCTYPE svg PUBLIC "-//W3C//DTD SVG 1.1//EN" "http://www.w3.org/Graphics/SVG/1.1/DTD/svg11.dtd">
<svg version="1.1" id="Capa_1" xmlns="http://www.w3.org/2000/svg" xmlns:xlink="http://www.w3.org/1999/xlink" x="0px" y="0px"
	 viewBox="0 0 79.408 79.408" style="enable-background:new 0 0 79.408 79.408;" xml:space="preserve">
<path d="M78.162,53.594L64.388,40.639c-0.709-0.666-1.659-1.033-2.674-1.033c-0.944,0-1.843,0.324-2.53,0.912L48.513,49.66
	c-0.051,0.044-0.098,0.099-0.148,0.146H37.228c-0.761,0-1.83-0.583-2.242-1.223l-4.013-6.232l-2.61-14.691
	c-0.284-1.604-1.819-2.723-3.478-2.429l-3.241,0.576c-1.002-5-5.424-8.779-10.714-8.779C4.903,17.028,0,21.93,0,27.956
	c0,5.53,4.132,10.103,9.469,10.82l10.368,11.167c0.059,0.064,0.126,0.112,0.189,0.169l9.446,10.453
	c0.934,1.034,2.689,1.814,4.083,1.814H47.22c0.888,0,1.707-0.387,2.305-0.995c0.21-0.125,0.427-0.278,0.657-0.502l9.742-9.503
	c0.626-0.612,1.822-0.652,2.489-0.083l10.709,9.154c0.62,0.529,1.396,0.821,2.185,0.821c1.082,0,2.105-0.549,2.738-1.471
	l0.678-0.988C79.821,57.215,79.574,54.922,78.162,53.594z M20.768,32.683l0.721-0.132c0.518-0.095,0.954,0.243,1.01,0.753
	l0.484,4.435l-1.785,2.867l-3.968-3.734C18.738,35.802,19.958,34.361,20.768,32.683z"/>
<g>
</g>
<g>
</g>
<g>
</g>
<g>
</g>
<g>
</g>
<g>
</g>
<g>
</g>
<g>
</g>
<g>
</g>
<g>
</g>
<g>
</g>
<g>
</g>
<g>
</g>
<g>
</g>
<g>
</g>
</svg>
