<?xml version="1.0" encoding="iso-8859-1"?>
<!-- Generator: Adobe Illustrator 17.1.0, SVG Export Plug-In . SVG Version: 6.00 Build 0)  -->
<!DOCTYPE svg PUBLIC "-//W3C//DTD SVG 1.1//EN" "http://www.w3.org/Graphics/SVG/1.1/DTD/svg11.dtd">
<svg version="1.1" id="Capa_1" xmlns="http://www.w3.org/2000/svg" xmlns:xlink="http://www.w3.org/1999/xlink" x="0px" y="0px"
	 viewBox="0 0 99.222 99.222" style="enable-background:new 0 0 99.222 99.222;" xml:space="preserve">
<g>
	<path d="M70.023,35.197l9.343-10.559c0.947-1.07,1.433-2.93,1.131-4.327L76.733,2.908c-0.328-1.517-1.799-2.764-3.349-2.84
		L71.917,0c-0.802,0-1.523,0.332-1.979,0.911c-0.46,0.584-0.615,1.376-0.423,2.172l3.489,14.51c0.176,0.732-0.15,1.882-0.683,2.413
		l-5.547,5.517c-0.027-0.001-0.052-0.008-0.079-0.008H53.531h-1.02h-1.406c-1.388,0-2.97,0.9-3.68,2.093l-8.698,14.616
		c-0.719,1.208-0.713,3.027,0.014,4.23l5.526,9.152l-2.667,4.709c-0.03,0.052-0.044,0.107-0.07,0.161L22.27,66.228
		c-1.393,0.416-2.546,1.333-3.163,2.518c-0.512,0.983-0.611,2.074-0.28,3.071c0.579,1.741,2.379,2.91,4.481,2.91
		c0.553,0,1.104-0.081,1.641-0.241l27.408-8.186l5.3,1.326c0.584,0.146,1.347,0.227,2.147,0.227c0.321,0,0.631-0.016,0.931-0.041
		v27.412c0,2.206,1.794,4,4,4h0.736c2.206,0,4-1.794,4-4V65.699l6.561-1.685c0.812-0.208,1.45-0.733,1.75-1.44
		s0.236-1.53-0.177-2.259l-6.323-11.163c-0.346-0.61-0.923-1.153-1.589-1.554V35.505C69.808,35.411,69.92,35.313,70.023,35.197z
		 M46.088,45.978c-0.355-0.541-0.373-1.538-0.038-2.091l3.46-5.716v9.427c-0.596,0.359-1.111,0.835-1.462,1.368L46.088,45.978z"/>
	<path d="M59.602,23.129c5.789,0,10.498-4.71,10.498-10.499c0-5.789-4.709-10.498-10.498-10.498
		c-5.789,0-10.499,4.709-10.499,10.498C49.103,18.419,53.813,23.129,59.602,23.129z"/>
</g>
<g>
</g>
<g>
</g>
<g>
</g>
<g>
</g>
<g>
</g>
<g>
</g>
<g>
</g>
<g>
</g>
<g>
</g>
<g>
</g>
<g>
</g>
<g>
</g>
<g>
</g>
<g>
</g>
<g>
</g>
</svg>
