<?xml version="1.0" encoding="iso-8859-1"?>
<!-- Generator: Adobe Illustrator 18.0.0, SVG Export Plug-In . SVG Version: 6.00 Build 0)  -->
<!DOCTYPE svg PUBLIC "-//W3C//DTD SVG 1.1//EN" "http://www.w3.org/Graphics/SVG/1.1/DTD/svg11.dtd">
<svg version="1.1" id="Capa_1" xmlns="http://www.w3.org/2000/svg" xmlns:xlink="http://www.w3.org/1999/xlink" x="0px" y="0px"
	 viewBox="0 0 492.613 492.613" style="enable-background:new 0 0 492.613 492.613;" xml:space="preserve">
<g id="XMLID_106_">
	<path id="XMLID_107_" d="M111.627,102.28c20.432,4.413,40.575-8.603,44.981-29.034c4.39-20.449-8.635-40.56-29.066-44.965
		c-20.44-4.397-40.569,8.61-44.958,29.042C78.195,77.763,91.187,97.891,111.627,102.28z"/>
	<path id="XMLID_108_" d="M223.824,113.693l-43.316,43.46l2.595-1.345c16.156-8.378,35.587-3.572,46.256,10.421l23.508-23.589
		c7.993-8.018,7.977-21.001-0.049-28.994C244.793,105.644,231.818,105.676,223.824,113.693z"/>
	<path id="XMLID_109_" d="M190.657,170.369l-50.188,26.023l-6.704-29.941l6.343,11.646l36.804-19.078c0,0-18.816-17.832-24.966-23.9
		c-3.7-3.651-11.255-9.202-18.229-11.278c-14.581-4.34-25.102-6.88-38.149,1.562c-7.265,4.693-12.367,12.078-14.185,20.528
		L42.305,347.458L2.457,429.86c-5.911,12.23-0.793,26.944,11.446,32.864c12.263,5.918,26.936,0.809,32.863-11.446l41.465-85.749
		c1.073-2.219,1.802-4.59,2.17-7.025l9.364-61.825l46.286,43.243l13.233,103.764c1.73,13.608,14.209,23.003,27.52,21.29
		c13.48-1.714,23.011-14.042,21.29-27.522l-14.353-112.565c-0.722-5.688-3.412-10.949-7.609-14.865
		c-1.242-1.161-48.786-45.582-50.003-46.712c-17.565,9.091-35.33,1.281-42.482-12.502c-6.352-12.278-2.884-24.453,0.096-75.402
		l12.527,55.922c2.099,9.388,10.468,16.02,20.008,16.02c7.938,0,75.777-36.692,83.252-40.569
		c10.052-5.213,13.976-17.588,8.769-27.64C213.076,169.088,200.692,165.17,190.657,170.369z"/>
	<path id="XMLID_110_" d="M490.156,429.86l-39.848-82.401L411.23,145.931c-1.819-8.45-6.92-15.834-14.185-20.528
		c-7.257-4.694-16.084-6.304-24.542-4.485c-4.484,0.961-10.828,2.243-15.234,3.452l-40.472,0.705l-17.101-56.892
		c-3.25-10.837-14.681-17.012-25.541-13.736c-10.845,3.26-16.996,14.698-13.736,25.543l21.57,71.766
		c2.609,8.681,10.603,14.602,19.638,14.602c0.12,0,0.241,0,0.361,0l32.59-0.569l1.153,5.382l14.947,1.105l4.837-6.856l3.604-5.118
		l-7.993,28.458l-57.092-4.229c-11.149-0.962-21.121,7.633-21.961,18.934c-0.833,11.294,7.641,21.13,18.935,21.961
		c0,0,74.833,5.52,75.336,5.52c9.123,0,17.236-6.064,19.736-14.961l12.526-44.589l3.261,49.026
		c0.961,14.425-10.101,26.687-24.165,27.617c-1.017,0.064-25.791-1.658-25.791-1.658l3.797,17.653l-49.227,45.99
		c-4.196,3.916-6.887,9.178-7.609,14.865l-14.353,112.565c-1.873,14.675,9.524,27.722,24.438,27.722
		c12.198,0,22.794-9.068,24.372-21.49l13.233-103.764l46.287-43.243l9.363,61.825c0.368,2.435,1.096,4.806,2.171,7.025
		l41.464,85.749c5.927,12.255,20.601,17.365,32.863,11.446C490.948,456.804,496.066,442.09,490.156,429.86z"/>
	<path id="XMLID_111_" d="M380.986,102.28c20.44-4.389,33.432-24.517,29.042-44.958c-4.39-20.432-24.516-33.439-44.957-29.042
		c-20.432,4.405-33.456,24.517-29.066,44.965C340.411,93.677,360.554,106.693,380.986,102.28z"/>
</g>
<g>
</g>
<g>
</g>
<g>
</g>
<g>
</g>
<g>
</g>
<g>
</g>
<g>
</g>
<g>
</g>
<g>
</g>
<g>
</g>
<g>
</g>
<g>
</g>
<g>
</g>
<g>
</g>
<g>
</g>
</svg>
