<?xml version="1.0" encoding="iso-8859-1"?>
<!-- Generator: Adobe Illustrator 19.0.0, SVG Export Plug-In . SVG Version: 6.00 Build 0)  -->
<svg version="1.1" id="Layer_1" xmlns="http://www.w3.org/2000/svg" xmlns:xlink="http://www.w3.org/1999/xlink" x="0px" y="0px"
	 viewBox="0 0 512 512" style="enable-background:new 0 0 512 512;" xml:space="preserve">
<g>
	<g>
		<circle cx="409.648" cy="98.729" r="35.663"/>
	</g>
</g>
<g>
	<g>
		<circle cx="265" cy="120.318" r="15.303"/>
	</g>
</g>
<g>
	<g>
		<path d="M495.484,476.649h-7.507c7.953-3.622,13.004-12.086,11.886-21.219c-17.681-144.315-34.576-278.743-34.509-278.21
			c-2.431-19.508-20.215-33.353-39.724-30.923c0,0-38.401,8.235-86.253,19.432l-72.48-8.997
			c-8.449-1.058-16.161,4.953-17.209,13.408c-1.05,8.454,4.954,16.16,13.408,17.209l75.234,9.34c1.768,0.22,3.607,0.14,5.456-0.297
			l82.821-19.622c-83.764,36.523-83.497,34.576-83.497,34.576l-54.116,13.07l-55.552-18.541
			c-0.877-13.834-13.303-27.861-31.536-33.945c-22.224-7.418-44.647-0.229-50.081,16.056c-5.435,16.285,8.175,35.5,30.399,42.917
			c17.208,5.743,34.528,2.724,43.996-6.489l49.37,16.477c0.688,9.694,9.864,16.12,18.995,13.915l63.636-15.368
			c4.927-1.191,8.955-4.724,10.775-9.453l8.361-21.719l11.169,89.658l-34.272,52.235c-2.161,3.294-3.331,7.139-3.371,11.08
			l-0.958,96.49c-0.083,8.396,4.883,15.655,12.063,18.922H33.032V18.834c0-9.122-7.394-16.516-16.516-16.516
			C7.394,2.318,0,9.713,0,18.834v474.332c0,9.122,7.394,16.516,16.516,16.516h478.968c9.122,0,16.516-7.396,16.516-16.517
			C512,484.043,504.606,476.649,495.484,476.649z M378.986,476.648c7.05-3.205,11.995-10.258,12.077-18.513l0.898-90.456
			l37.972-57.875l10.482-1.306l18.615,151.933c0.905,7.38,5.62,13.349,11.925,16.217H378.986z"/>
	</g>
</g>
<g>
</g>
<g>
</g>
<g>
</g>
<g>
</g>
<g>
</g>
<g>
</g>
<g>
</g>
<g>
</g>
<g>
</g>
<g>
</g>
<g>
</g>
<g>
</g>
<g>
</g>
<g>
</g>
<g>
</g>
</svg>
