<?xml version="1.0" encoding="iso-8859-1"?>
<!-- Generator: Adobe Illustrator 16.0.0, SVG Export Plug-In . SVG Version: 6.00 Build 0)  -->
<!DOCTYPE svg PUBLIC "-//W3C//DTD SVG 1.1//EN" "http://www.w3.org/Graphics/SVG/1.1/DTD/svg11.dtd">
<svg version="1.1" id="Capa_1" xmlns="http://www.w3.org/2000/svg" xmlns:xlink="http://www.w3.org/1999/xlink" x="0px" y="0px"
	 width="33.889px" height="33.889px" viewBox="0 0 33.889 33.889" style="enable-background:new 0 0 33.889 33.889;"
	 xml:space="preserve">
<g>
	<path d="M30.883,6.286c-0.188-0.088-0.063-0.15-0.238-0.264c-0.176-0.112-1.153-0.125-1.504,0.025
		c-0.352,0.15-0.689,0.389-1.166,0.364c-0.477-0.025-1.366-0.803-2.083-0.854c-0.718-0.051-1.679-0.07-2.343-0.099
		c-0.664-0.028-1.266-0.313-1.691-0.313s-1.755,0.05-1.98-0.05c-0.227-0.1-0.051-0.515-0.051-0.515s0.26-0.733,0.389-0.752
		c0.264-0.037,0.627-0.727,0.627-0.727s0.375,0.125,0.5-0.238c0.125-0.364,0.177-1.091-0.149-1.066
		c-0.024-0.764-0.39-1.955-1.868-1.78c-1.479,0.175-1.491,1.724-1.629,1.718c-0.313-0.012-0.175,1.267-0.175,1.267
		s0.087,0.815,0,1.027c-0.088,0.213-0.858,0.385-1.768,0.878c-0.91,0.494-1.053,0.89-1.479,1.141
		c-0.427,0.251-1.708,0.977-2.096,1.197c-0.389,0.22-0.837,0.771-0.737,1.072c0.101,0.3,1.931,3.849,1.931,3.849
		s-0.42,0.112-0.589,0.188c-0.169,0.076-0.175,0.664-0.175,0.664s-4.237,1.542-5.554,1.793c-1.317,0.251-1.792,0.145-2.971,0.1
		c-0.737-0.028-1.304,0.928-1.053,2.106c0.107,0.502-0.25,0.728-0.25,1.027c0,0.802,1.012,1.815,1.255,2.081
		c0.242,0.266-0.202,0.627-0.01,1.052c0.192,0.427,0.585,0.327,0.66,0.68c0.075,0.352-0.952,0.676-0.602,1.178
		s1.229,0.301,1.464,0.854c0.236,0.556,1.144,1.451,1.761,1.633c0.618,0.181,0.736-0.206,1.49,0.169
		c0.753,0.374,0.55,1.53,1.344,1.764c0.793,0.232,1.187-0.057,1.93,0.249c0.743,0.305,1.112,1.072,2.043,1.545
		c0.932,0.473,2.153,0.906,2.153,0.906l-0.439,0.298c0,0-0.456,1.797-0.498,1.965c-0.042,0.169,0.489,0.123,0.489,0.123
		s-0.038,0.366,0.094,0.498c0.131,0.132,0.715,0.393,0.94,0.498s0.875,0.386,1.044,0.348c0.169-0.037,0.075-0.507-0.019-0.592
		s-0.197-0.441-0.179-0.931c0.019-0.489,0.301-0.748,0.301-0.748l0.169,1.236l0.659,0.027c0,0-0.088-0.702,0.149-0.79
		c0.386-0.141,1.044,1.119,1.307,1.129s1.89,0.019,2.05,0.02s0.028-0.564-0.149-0.62c-0.179-0.057-0.81-0.104-1.117-0.355
		s-0.638-1.704-0.638-1.704s2.906,0.953,3.773,0.824c0.867-0.13,1.451-0.521,2.192-1.124s1.713-0.42,2.349-0.828
		c0.635-0.406,1.362-1.278,1.362-1.278s-5.312-8.189-7.785-12.36c-0.389-0.655-0.269-0.939-0.514-1.379
		c-0.293-0.527-0.427-0.62-0.427-0.702c0-0.59,0.072-2.945,0.078-3.422c0.01-0.803,0.599-0.893,0.61-1.42
		c0.013-0.526-0.601-1.401-0.5-1.602c0.101-0.201,0.965-0.527,1.854-0.577c0.891-0.05,2.02,0.038,2.684,0.301
		c0.664,0.264,1.868,0.766,2.369,0.853c0.502,0.088,0.777,0.063,1.078,0.213s0.891,0.477,0.891,0.352s-0.013-0.414-0.176-0.451
		c-0.163-0.038-0.828-0.326-0.73-0.442c0.098-0.115,0.5-0.289,0.668-0.36c0.168-0.071,0.176-0.163,0.351-0.238
		c0.175-0.075,0.317-0.1,0.477-0.15C31.195,6.716,31.071,6.375,30.883,6.286z M16.817,13.068c-0.113,0.226-0.514,0.576-0.991,0.589
		c-0.476,0.013-1.366-0.554-1.253-0.803c0.112-0.248,0.354-0.672,0.213-0.978c-0.141-0.306-1.429-3.083-1.354-3.321
		c0.075-0.239,2.141-1.353,2.492-1.253c0.352,0.1,1.194,2.167,1.319,2.97C17.368,11.075,16.93,12.842,16.817,13.068z"/>
</g>
<g>
</g>
<g>
</g>
<g>
</g>
<g>
</g>
<g>
</g>
<g>
</g>
<g>
</g>
<g>
</g>
<g>
</g>
<g>
</g>
<g>
</g>
<g>
</g>
<g>
</g>
<g>
</g>
<g>
</g>
</svg>
